<svg width="90" height="90" viewBox="0 0 90 90" fill="none" xmlns="http://www.w3.org/2000/svg">
<path d="M45 9C25.2 9 9 25.2 9 45C9 64.8 25.2 81 45 81C64.8 81 81 64.8 81 45C81 25.2 64.8 9 45 9ZM59.193 63C58.533 63 58.203 62.67 57.543 62.34C52.593 59.367 46.323 57.72 39.723 57.72C36.093 57.72 32.133 58.38 28.833 59.04C28.173 59.04 27.513 59.37 27.183 59.37C25.863 59.37 24.873 58.38 24.873 57.06C24.873 55.74 25.533 54.75 26.853 54.75C31.143 53.76 35.436 53.1 40.056 53.1C47.646 53.1 54.576 55.08 60.516 58.38C61.176 59.04 61.836 59.37 61.836 60.69C61.17 62.34 60.18 63 59.193 63ZM62.82 53.763C62.16 53.763 61.5 53.433 60.84 53.103C55.23 49.473 47.307 47.493 38.73 47.493C34.44 47.493 30.477 48.153 27.51 48.813C26.85 49.143 26.52 49.143 25.86 49.143C24.21 49.143 23.217 47.823 23.217 46.5C23.217 44.85 23.877 44.19 25.527 43.527C29.487 42.537 33.45 41.547 39.06 41.547C48.3 41.547 56.88 43.857 64.143 48.147C65.133 48.807 65.793 49.797 65.793 50.79C65.46 52.44 64.473 53.763 62.82 53.763ZM67.11 43.2C66.45 43.2 66.12 42.87 65.13 42.54C58.53 38.91 48.96 36.6 39.72 36.6C35.1 36.6 30.15 37.26 25.857 38.25C25.197 38.25 24.867 38.58 23.877 38.58C21.897 38.913 20.577 37.26 20.577 35.283C20.577 33.306 21.567 32.31 22.887 31.983C28.17 30.66 33.78 30 39.72 30C49.95 30 60.51 32.31 68.763 36.6C69.753 37.26 70.743 38.25 70.743 39.9C70.413 41.88 69.09 43.2 67.11 43.2Z" fill="white"/>
</svg>
